<svg xmlns="http://www.w3.org/2000/svg" width="494" height="140" fill="none" viewBox="0 0 494 140"><path fill="#000" d="M155.835 35.3735H138.895V31.5538C138.895 27.6788 137.954 24.3573 136.072 21.5894C134.3 18.7108 131.256 17.2715 126.938 17.2715C124.613 17.2715 122.731 17.7144 121.291 18.6001C119.852 19.4858 118.69 20.593 117.804 21.9216C116.918 23.3609 116.309 25.0216 115.977 26.9038C115.645 28.6752 115.479 30.5574 115.479 32.5503C115.479 34.8753 115.534 36.8128 115.645 38.3628C115.866 39.9128 116.309 41.2968 116.973 42.5147C117.638 43.7325 118.579 44.7843 119.797 45.6701C121.125 46.5558 122.897 47.4415 125.111 48.3272L138.065 53.4755C141.829 54.9148 144.874 56.6309 147.199 58.6238C149.524 60.506 151.351 62.7203 152.679 65.2667C153.897 67.9239 154.728 70.9686 155.17 74.4008C155.613 77.7222 155.835 81.5419 155.835 85.8598C155.835 90.842 155.336 95.4921 154.34 99.81C153.344 104.017 151.738 107.615 149.524 110.605C147.199 113.705 144.154 116.141 140.39 117.912C136.626 119.683 132.031 120.569 126.606 120.569C122.509 120.569 118.69 119.849 115.147 118.41C111.604 116.971 108.559 114.978 106.013 112.432C103.466 109.885 101.418 106.951 99.8679 103.63C98.4286 100.197 97.709 96.4885 97.709 92.5027V86.192H114.648V91.5063C114.648 94.6063 115.534 97.4296 117.306 99.976C119.188 102.412 122.288 103.63 126.606 103.63C129.484 103.63 131.699 103.242 133.249 102.467C134.909 101.581 136.183 100.364 137.068 98.8135C137.954 97.2635 138.452 95.4367 138.563 93.3331C138.784 91.1188 138.895 88.6831 138.895 86.0259C138.895 82.9258 138.784 80.3794 138.563 78.3865C138.342 76.3936 137.899 74.7883 137.234 73.5704C136.459 72.3525 135.408 71.3561 134.079 70.5811C132.861 69.8061 131.2 68.9757 129.097 68.09L116.973 63.1078C109.666 60.1184 104.739 56.188 102.193 51.3166C99.7572 46.3344 98.5394 40.1343 98.5394 32.7163C98.5394 28.2877 99.1483 24.0805 100.366 20.0948C101.584 16.109 103.411 12.6768 105.847 9.79822C108.172 6.91961 111.106 4.64994 114.648 2.98921C118.302 1.21776 122.62 0.332031 127.602 0.332031C131.809 0.332031 135.629 1.10704 139.061 2.65706C142.604 4.20708 145.649 6.25531 148.195 8.80177C153.288 14.1161 155.835 20.2055 155.835 27.0698V35.3735Z"/><path fill="#000" d="M33.4004 119.573V1.32861H58.8096C63.4597 1.32861 67.5561 1.93755 71.099 3.15542C74.6419 4.37328 77.8527 6.53224 80.7313 9.63227C83.6099 12.7323 85.6028 16.3859 86.7099 20.5931C87.8171 24.6896 88.3707 30.2807 88.3707 37.3665C88.3707 42.6809 88.0385 47.1649 87.3742 50.8185C86.8207 54.4721 85.5474 57.9043 83.5546 61.115C81.2295 64.9901 78.1295 68.0347 74.2544 70.2491C70.3794 72.3526 65.2865 73.4044 58.9757 73.4044H50.3399V119.573H33.4004ZM50.3399 17.2716V57.4614H58.4775C61.9097 57.4614 64.5668 56.9632 66.449 55.9667C68.3312 54.9703 69.7151 53.5864 70.6008 51.8149C71.4865 50.1542 71.9848 48.1059 72.0955 45.6702C72.3169 43.2345 72.4276 40.5219 72.4276 37.5326C72.4276 34.7647 72.3723 32.1629 72.2616 29.7272C72.1508 27.1807 71.6526 24.9664 70.7669 23.0842C69.8812 21.2021 68.5526 19.7627 66.7811 18.7663C65.0097 17.7699 62.4632 17.2716 59.1418 17.2716H50.3399Z"/><path fill="#000" d="M0 119.573V1.32861H16.9395V119.573H0Z"/><path fill="#000" d="M237.441 51.1174V45.9359H237.242C235.913 47.7959 234.551 49.2241 233.156 50.2206C231.828 51.217 229.934 51.7152 227.476 51.7152C226.281 51.7152 225.052 51.516 223.79 51.1174C222.594 50.7852 221.431 50.1209 220.302 49.1245C219.173 48.1945 218.243 46.8659 217.512 45.1387C216.848 43.3451 216.516 41.0533 216.516 38.2633C216.516 35.4068 216.748 32.9157 217.213 30.79C217.678 28.5978 218.542 26.771 219.804 25.3096C221 23.9146 222.627 22.8849 224.686 22.2206C226.746 21.4899 229.37 21.1245 232.558 21.1245C232.89 21.1245 233.256 21.1245 233.654 21.1245C234.053 21.1245 234.418 21.1577 234.75 21.2242C235.083 21.2906 235.481 21.3238 235.946 21.3238C236.411 21.3238 236.909 21.357 237.441 21.4235V16.1423C237.441 14.4152 237.076 12.9869 236.345 11.8576C235.614 10.7283 234.285 10.1637 232.359 10.1637C231.03 10.1637 229.801 10.5955 228.672 11.4591C227.609 12.3226 226.912 13.5848 226.58 15.2455H216.715C216.981 10.7283 218.509 7.07472 221.299 4.28469C222.627 2.95611 224.221 1.92645 226.081 1.19572C227.941 0.398574 230.034 0 232.359 0C234.485 0 236.478 0.332148 238.338 0.996441C240.198 1.66073 241.825 2.65717 243.22 3.98576C244.549 5.31435 245.612 6.97508 246.409 8.96796C247.206 10.9608 247.605 13.2859 247.605 15.943V51.1174H237.441ZM237.441 29.395C236.312 29.1957 235.382 29.0961 234.651 29.0961C232.459 29.0961 230.565 29.6275 228.971 30.6904C227.443 31.6868 226.679 33.5468 226.679 36.2704C226.679 38.1969 227.144 39.758 228.074 40.9537C229.004 42.1494 230.3 42.7473 231.96 42.7473C233.688 42.7473 235.016 42.1826 235.946 41.0533C236.943 39.924 237.441 38.3297 237.441 36.2704V29.395Z"/><path fill="#000" d="M179.428 14.7473C179.561 12.7544 179.993 10.8944 180.723 9.16725C181.52 7.37366 182.55 5.81257 183.812 4.48398C185.141 3.08896 186.702 1.99288 188.496 1.19572C190.289 0.398574 192.249 0 194.375 0C196.5 0 198.526 0.365359 200.453 1.09608C202.446 1.76038 204.14 2.75682 205.535 4.0854C206.863 5.34756 207.893 6.87544 208.624 8.66903C209.421 10.3962 209.819 12.3559 209.819 14.548C209.819 15.2787 209.753 16.1423 209.62 17.1388C209.487 18.0688 209.188 19.032 208.723 20.0284C208.325 21.0249 207.694 22.0213 206.83 23.0178C206.033 23.9478 204.937 24.7449 203.542 25.4092C205.003 25.9407 206.199 26.605 207.129 27.4021C208.125 28.1993 208.856 29.0961 209.321 30.0925C209.853 31.0889 210.218 32.1518 210.417 33.2811C210.616 34.344 210.716 35.4068 210.716 36.4697C210.716 38.529 210.384 40.389 209.72 42.0498C209.055 43.7105 208.059 45.2716 206.73 46.733C205.269 48.3274 203.475 49.5563 201.35 50.4199C199.29 51.2835 197.032 51.7152 194.574 51.7152C189.857 51.7152 186.038 50.1542 183.115 47.032C180.524 44.2419 179.129 40.7212 178.93 36.4697H188.496C188.628 38.2633 189.16 39.6583 190.09 40.6548C191.086 41.6512 192.548 42.1494 194.474 42.1494C196.201 42.1494 197.563 41.6512 198.56 40.6548C199.622 39.5919 200.154 38.064 200.154 36.0711C200.154 34.1447 199.722 32.6168 198.858 31.4875C198.061 30.2918 196.567 29.6939 194.375 29.6939H191.186V21.2242H193.976C195.969 21.2242 197.397 20.726 198.261 19.7295C199.191 18.7331 199.656 17.1056 199.656 14.847C199.656 13.3855 199.191 12.1566 198.261 11.1601C197.331 10.0973 196.035 9.56582 194.375 9.56582C193.046 9.56582 191.85 9.9644 190.787 10.7616C189.724 11.4923 189.127 12.8209 188.994 14.7473H179.428Z"/><path fill="#000" d="M494.009 98.1492H473.881V105.025C473.881 106.619 474.312 107.848 475.176 108.712C476.106 109.575 477.335 110.007 478.863 110.007C480.789 110.007 482.051 109.442 482.649 108.313C483.313 107.184 483.712 106.054 483.845 104.925H494.009C494.009 109.376 492.647 112.963 489.923 115.687C488.595 117.082 487 118.178 485.14 118.975C483.28 119.772 481.188 120.171 478.863 120.171C475.674 120.171 472.95 119.506 470.692 118.178C468.5 116.849 466.806 115.089 465.61 112.897C464.879 111.568 464.381 110.04 464.115 108.313C463.85 106.586 463.717 104.693 463.717 102.633V85.9927C463.717 83.9334 463.85 82.0401 464.115 80.313C464.381 78.5858 464.879 77.0579 465.61 75.7293C466.806 73.5372 468.5 71.7768 470.692 70.4482C472.95 69.1196 475.674 68.4553 478.863 68.4553C481.188 68.4553 483.28 68.8539 485.14 69.651C487.067 70.4482 488.694 71.5443 490.023 72.9393C492.68 75.9286 494.009 79.6819 494.009 84.1991V98.1492ZM473.881 90.1777H483.845V84.3984C483.845 82.4719 483.38 81.0437 482.45 80.1137C481.586 79.1172 480.391 78.619 478.863 78.619C477.335 78.619 476.106 79.1172 475.176 80.1137C474.312 81.0437 473.881 82.4719 473.881 84.3984V90.1777Z"/><path fill="#000" d="M424.229 119.573V69.0535H434.392V111.103H444.456V69.0535H454.62V111.103H460.001V129.537H451.431V119.573H424.229Z"/><path fill="#000" d="M380.356 110.007C381.086 110.007 381.817 109.808 382.548 109.409C383.345 109.011 384.142 108.313 384.939 107.317C385.604 106.52 386.135 105.39 386.534 103.929C386.932 102.401 387.231 100.84 387.43 99.2456C387.63 97.5849 387.763 96.0238 387.829 94.5623C387.895 93.0345 387.929 91.8719 387.929 91.0748V69.0535H415.829V119.573H405.665V77.5232H397.494V86.8897C397.494 89.2148 397.428 91.573 397.295 93.9645C397.162 96.2895 396.93 98.5481 396.598 100.74C396.332 102.866 395.967 104.859 395.502 106.719C395.037 108.579 394.439 110.173 393.708 111.502C392.313 114.093 390.486 116.085 388.228 117.48C385.969 118.875 383.411 119.573 380.555 119.573H379.857V110.007H380.356Z"/><path fill="#000" d="M366.199 119.573V114.391H365.999C364.671 116.251 363.309 117.679 361.914 118.676C360.585 119.672 358.692 120.171 356.234 120.171C355.039 120.171 353.81 119.971 352.547 119.573C351.352 119.241 350.189 118.576 349.06 117.58C347.931 116.65 347.001 115.321 346.27 113.594C345.606 111.8 345.273 109.509 345.273 106.719C345.273 103.862 345.506 101.371 345.971 99.2453C346.436 97.0532 347.3 95.2263 348.562 93.7649C349.757 92.3699 351.385 91.3402 353.444 90.6759C355.504 89.9452 358.128 89.5799 361.316 89.5799C361.648 89.5799 362.014 89.5799 362.412 89.5799C362.811 89.5799 363.176 89.6131 363.508 89.6795C363.84 89.7459 364.239 89.7791 364.704 89.7791C365.169 89.7791 365.667 89.8124 366.199 89.8788V84.5977C366.199 82.8705 365.833 81.4423 365.103 80.313C364.372 79.1837 363.043 78.619 361.117 78.619C359.788 78.619 358.559 79.0508 357.43 79.9144C356.367 80.778 355.67 82.0401 355.337 83.7009H345.473C345.738 79.1837 347.266 75.53 350.056 72.74C351.385 71.4114 352.979 70.3818 354.839 69.651C356.699 68.8539 358.792 68.4553 361.117 68.4553C363.243 68.4553 365.235 68.7875 367.095 69.4518C368.955 70.1161 370.583 71.1125 371.978 72.4411C373.307 73.7697 374.369 75.4304 375.167 77.4233C375.964 79.4162 376.362 81.7412 376.362 84.3984V119.573H366.199ZM366.199 97.8503C365.069 97.651 364.139 97.5514 363.409 97.5514C361.216 97.5514 359.323 98.0828 357.729 99.1457C356.201 100.142 355.437 102.002 355.437 104.726C355.437 106.652 355.902 108.213 356.832 109.409C357.762 110.605 359.058 111.203 360.718 111.203C362.445 111.203 363.774 110.638 364.704 109.509C365.7 108.379 366.199 106.785 366.199 104.726V97.8503Z"/><path fill="#000" d="M338.63 69.0535V119.573H291.598V69.0535H301.761V111.103H310.032V69.0535H320.195V111.103H328.466V69.0535H338.63Z"/><path fill="#000" d="M252.281 69.0535H263.043L270.018 100.541H270.217L277.093 69.0535H287.555L273.007 128.342C272.476 130.6 271.712 132.46 270.715 133.922C269.785 135.383 268.689 136.579 267.427 137.509C266.165 138.439 264.803 139.07 263.342 139.402C261.947 139.801 260.485 140 258.957 140H256.167V130.434H258.459C259.456 130.434 260.319 130.301 261.05 130.036C261.781 129.77 262.445 129.172 263.043 128.242C263.574 127.312 264.072 125.983 264.537 124.256C265.002 122.596 265.534 120.27 266.132 117.281L252.281 69.0535Z"/><path fill="#000" d="M240.085 119.573V114.391H239.886C238.558 116.251 237.196 117.679 235.801 118.676C234.472 119.672 232.579 120.171 230.121 120.171C228.925 120.171 227.696 119.971 226.434 119.573C225.238 119.241 224.076 118.576 222.947 117.58C221.817 116.65 220.887 115.321 220.157 113.594C219.492 111.8 219.16 109.509 219.16 106.719C219.16 103.862 219.393 101.371 219.858 99.2453C220.323 97.0532 221.186 95.2263 222.448 93.7649C223.644 92.3699 225.272 91.3402 227.331 90.6759C229.39 89.9452 232.014 89.5799 235.203 89.5799C235.535 89.5799 235.9 89.5799 236.299 89.5799C236.698 89.5799 237.063 89.6131 237.395 89.6795C237.727 89.7459 238.126 89.7791 238.591 89.7791C239.056 89.7791 239.554 89.8124 240.085 89.8788V84.5977C240.085 82.8705 239.72 81.4423 238.989 80.313C238.259 79.1837 236.93 78.619 235.004 78.619C233.675 78.619 232.446 79.0508 231.317 79.9144C230.254 80.778 229.556 82.0401 229.224 83.7009H219.359C219.625 79.1837 221.153 75.53 223.943 72.74C225.272 71.4114 226.866 70.3818 228.726 69.651C230.586 68.8539 232.679 68.4553 235.004 68.4553C237.129 68.4553 239.122 68.7875 240.982 69.4518C242.842 70.1161 244.47 71.1125 245.865 72.4411C247.193 73.7697 248.256 75.4304 249.053 77.4233C249.851 79.4162 250.249 81.7412 250.249 84.3984V119.573H240.085ZM240.085 97.8503C238.956 97.651 238.026 97.5514 237.295 97.5514C235.103 97.5514 233.21 98.0828 231.616 99.1457C230.088 100.142 229.324 102.002 229.324 104.726C229.324 106.652 229.789 108.213 230.719 109.409C231.649 110.605 232.944 111.203 234.605 111.203C236.332 111.203 237.661 110.638 238.591 109.509C239.587 108.379 240.085 106.785 240.085 104.726V97.8503Z"/><path fill="#000" d="M182.514 119.573V69.0535H212.905V119.573H202.741V77.5232H192.677V119.573H182.514Z"/></svg>